<svg xmlns="http://www.w3.org/2000/svg" width="60" height="60" fill="none" viewBox="0 0 60 60">
    <mask id="a" width="60" height="60" x="0" y="0" maskUnits="userSpaceOnUse">
        <path fill="#fff" fill-rule="evenodd"
              d="M0 30C0 13.431 13.431 0 30 0c16.569 0 30 13.431 30 30 0 16.569-13.431 30-30 30C13.431 60 0 46.569 0 30z"
              clip-rule="evenodd"/>
    </mask>
    <g fill-rule="evenodd" clip-rule="evenodd" mask="url(#a)">
        <path fill="#000"
              d="M0 30C0 13.431 13.431 0 30 0c16.569 0 30 13.431 30 30 0 16.569-13.431 30-30 30C13.431 60 0 46.569 0 30z"/>
        <path fill="url(#paint0_linear)"
              d="M0 30C0 13.431 13.431 0 30 0c16.569 0 30 13.431 30 30 0 16.569-13.431 30-30 30C13.431 60 0 46.569 0 30z"/>
        <path fill="#fff"
              d="M30.002 14c-4.346 0-4.891.019-6.598.097-1.703.078-2.866.347-3.883.743a7.836 7.836 0 0 0-2.835 1.845 7.855 7.855 0 0 0-1.846 2.834c-.397 1.018-.667 2.18-.744 3.883C14.02 25.11 14 25.655 14 30c0 4.346.02 4.89.097 6.596.078 1.703.348 2.866.743 3.883a7.84 7.84 0 0 0 1.845 2.835 7.833 7.833 0 0 0 2.834 1.846c1.018.396 2.18.666 3.884.744C25.109 45.98 25.655 46 30 46c4.345 0 4.889-.019 6.596-.096 1.703-.078 2.867-.348 3.885-.744a7.827 7.827 0 0 0 2.832-1.846 7.854 7.854 0 0 0 1.847-2.834c.393-1.018.663-2.181.743-3.884C45.98 34.89 46 34.346 46 30c0-4.345-.02-4.89-.097-6.597-.08-1.704-.35-2.866-.743-3.884a7.853 7.853 0 0 0-1.847-2.834 7.819 7.819 0 0 0-2.833-1.845c-1.02-.396-2.183-.665-3.887-.743-1.706-.078-2.25-.097-6.597-.097h.006zm-1.436 2.883h1.436c4.271 0 4.778.016 6.465.092 1.56.072 2.407.332 2.97.551.747.29 1.28.637 1.84 1.197s.906 1.093 1.197 1.84c.219.563.48 1.41.55 2.97.077 1.687.094 2.194.094 6.463 0 4.27-.017 4.777-.093 6.464-.072 1.56-.332 2.407-.551 2.97a4.947 4.947 0 0 1-1.198 1.838c-.56.56-1.091.907-1.838 1.197-.564.22-1.411.48-2.971.551-1.687.077-2.194.093-6.465.093-4.273 0-4.78-.016-6.466-.093-1.56-.072-2.407-.333-2.97-.552a4.957 4.957 0 0 1-1.841-1.196 4.96 4.96 0 0 1-1.197-1.84c-.22-.563-.48-1.41-.551-2.97-.077-1.686-.092-2.193-.092-6.465 0-4.273.015-4.777.092-6.464.071-1.56.332-2.407.55-2.97.29-.747.638-1.28 1.198-1.84a4.967 4.967 0 0 1 1.84-1.198c.564-.22 1.411-.48 2.971-.552 1.476-.066 2.048-.086 5.03-.09v.004zm9.976 2.657a1.92 1.92 0 1 0 0 3.841 1.92 1.92 0 0 0 0-3.842v.001zm-8.54 2.243a8.216 8.216 0 1 0 0 16.432 8.216 8.216 0 0 0 0-16.432zm0 2.884a5.333 5.333 0 1 1 0 10.667 5.333 5.333 0 0 1 0-10.667z"/>
    </g>
    <defs>
        <linearGradient id="paint0_linear" x1="53" x2="4.5" y1="0" y2="56.5" gradientUnits="userSpaceOnUse">
            <stop stop-color="#5F5DCC"/>
            <stop offset=".521" stop-color="#D9387B"/>
            <stop offset=".928" stop-color="#FABC35"/>
        </linearGradient>
    </defs>
</svg>