<svg xmlns="http://www.w3.org/2000/svg" width="60" height="60" fill="none" viewBox="0 0 60 60">
    <path fill="#FFE400" fill-rule="evenodd"
          d="M0 30C0 13.431 13.431 0 30 0c16.569 0 30 13.431 30 30 0 16.569-13.431 30-30 30C13.431 60 0 46.569 0 30z"
          clip-rule="evenodd"/>
    <path fill="#fff" fill-rule="evenodd"
          d="M30.308 15h-.08l-.55.006c-.71 0-2.132.1-3.659.772a8.153 8.153 0 0 0-2.333 1.543c-.806.762-1.462 1.702-1.95 2.794-.715 1.6-.545 4.292-.409 6.456v.004l.044.71a1.257 1.257 0 0 1-.525.098c-.404 0-.883-.128-1.426-.382a1.277 1.277 0 0 0-.542-.111c-.323 0-.663.095-.959.267-.371.218-.611.525-.676.866-.043.226-.041.671.455 1.123.273.249.674.478 1.192.682.136.053.297.104.468.158.592.188 1.49.472 1.723 1.02.118.279.067.645-.151 1.087a.747.747 0 0 0-.017.037c-.055.127-.564 1.278-1.61 2.493a9.05 9.05 0 0 1-1.945 1.716 7.162 7.162 0 0 1-2.73 1.063.748.748 0 0 0-.627.78c.007.11.033.219.077.325l.001.002c.153.356.508.66 1.084.926.704.326 1.757.6 3.129.815.07.132.141.462.191.688.052.24.107.488.184.75.084.285.3.625.858.625.212 0 .455-.047.736-.102.412-.08.976-.19 1.679-.19.39 0 .794.034 1.2.101.785.13 1.46.606 2.243 1.158 1.145.807 2.44 1.72 4.42 1.72.054 0 .108-.002.162-.005.065.003.146.005.232.005 1.98 0 3.276-.914 4.42-1.72l.001-.002c.782-.55 1.458-1.026 2.241-1.156.407-.067.811-.101 1.201-.101.672 0 1.204.085 1.68.177.31.061.55.09.735.09h.037c.407 0 .707-.222.821-.613.076-.257.13-.498.184-.743.047-.212.121-.552.19-.685 1.374-.215 2.426-.488 3.13-.814.575-.266.929-.569 1.083-.924a.956.956 0 0 0 .079-.329.748.748 0 0 0-.627-.779c-4.278-.703-6.205-5.086-6.285-5.272a.496.496 0 0 0-.017-.036c-.219-.443-.27-.809-.15-1.087.233-.549 1.129-.832 1.722-1.02.172-.054.333-.105.468-.158.584-.23 1.001-.48 1.276-.763.33-.338.393-.66.39-.873-.01-.512-.404-.967-1.028-1.19a1.844 1.844 0 0 0-.697-.133c-.166 0-.413.023-.647.132-.5.233-.949.361-1.334.38a1.212 1.212 0 0 1-.441-.097l.038-.62.005-.091c.138-2.166.308-4.86-.408-6.46-.49-1.097-1.148-2.04-1.957-2.803a8.174 8.174 0 0 0-2.342-1.543A9.34 9.34 0 0 0 30.308 15z"
          clip-rule="evenodd"/>
</svg>