<svg xmlns="http://www.w3.org/2000/svg" width="60" height="60" fill="none" viewBox="0 0 60 60">
    <path fill="#55ACEE" fill-rule="evenodd"
          d="M0 30C0 13.431 13.431 0 30 0c16.569 0 30 13.431 30 30 0 16.569-13.431 30-30 30C13.431 60 0 46.569 0 30z"
          clip-rule="evenodd"/>
    <path fill="#fff" fill-rule="evenodd"
          d="M29.102 24.384l.063 1.038-1.05-.127c-3.819-.487-7.155-2.14-9.988-4.915l-1.385-1.377-.357 1.017c-.756 2.267-.273 4.661 1.301 6.271.84.89.65 1.017-.797.487-.504-.17-.945-.296-.987-.233-.147.148.357 2.076.756 2.839.545 1.06 1.657 2.097 2.875 2.712l1.028.487-1.217.021c-1.175 0-1.217.021-1.091.466.42 1.377 2.077 2.839 3.924 3.475l1.3.444-1.133.678a11.815 11.815 0 0 1-5.623 1.568c-.945.021-1.721.106-1.721.17 0 .211 2.56 1.398 4.05 1.864 4.47 1.377 9.779.784 13.766-1.568 2.833-1.673 5.665-5 6.987-8.22.714-1.716 1.428-4.851 1.428-6.355 0-.975.062-1.102 1.238-2.267.692-.678 1.343-1.42 1.468-1.631.21-.403.19-.403-.88-.043-1.785.636-2.036.551-1.155-.402.65-.678 1.427-1.907 1.427-2.267 0-.063-.315.043-.672.233-.377.212-1.217.53-1.846.72l-1.133.36-1.029-.698c-.566-.382-1.364-.805-1.783-.933-1.07-.296-2.707-.254-3.672.085-2.624.953-4.281 3.41-4.093 6.101z"
          clip-rule="evenodd"/>
</svg>