<svg xmlns="http://www.w3.org/2000/svg" width="95" height="95" fill="none" viewBox="0 0 95 95"><path fill="url(#paint0_linear)" fill-opacity=".1" fill-rule="evenodd" d="M47.5 95C73.734 95 95 73.734 95 47.5 95 21.267 73.734 0 47.5 0 21.267 0 0 21.267 0 47.5 0 73.734 21.267 95 47.5 95z" clip-rule="evenodd"/><path fill="url(#paint1_linear)" fill-opacity=".3" fill-rule="evenodd" d="M47.5 88.039c22.389 0 40.539-18.15 40.539-40.539 0-22.389-18.15-40.539-40.539-40.539-22.389 0-40.539 18.15-40.539 40.539 0 22.389 18.15 40.539 40.539 40.539z" clip-rule="evenodd"/><path fill="#F9F9F9" fill-opacity=".67" fill-rule="evenodd" d="M47.449 80.566c18.29 0 33.117-14.827 33.117-33.117S65.739 14.332 47.449 14.332 14.332 29.159 14.332 47.449s14.827 33.117 33.117 33.117z" clip-rule="evenodd"/><path fill="url(#paint2_linear)" fill-rule="evenodd" d="M47.5 78.211c16.961 0 30.711-13.75 30.711-30.711S64.461 16.789 47.5 16.789 16.789 30.539 16.789 47.5 30.539 78.211 47.5 78.211z" clip-rule="evenodd"/><path fill="url(#paint3_linear)" fill-rule="evenodd" d="M47.5 78.211c16.961 0 30.711-13.75 30.711-30.711S64.461 16.789 47.5 16.789 16.789 30.539 16.789 47.5 30.539 78.211 47.5 78.211z" clip-rule="evenodd"/><mask id="a" width="63" height="63" x="16" y="16" maskUnits="userSpaceOnUse"><path fill="#fff" fill-rule="evenodd" d="M47.5 78.211c16.961 0 30.711-13.75 30.711-30.711S64.461 16.789 47.5 16.789 16.789 30.539 16.789 47.5 30.539 78.211 47.5 78.211z" clip-rule="evenodd"/></mask><g fill-rule="evenodd" clip-rule="evenodd" mask="url(#a)"><path fill="#fff" d="M43.673 53.094c-2.516-4.424-5.043-3.29-5.043-3.29 7.354 9.782 6.225 16.758 6.284 18.901H42.33c2.583-7.204-4.803-17.736-4.803-17.736-2.108 2.848 1.4 6.974 1.4 6.974-5.757-1.585-4.2-5.918-4.2-5.918-2.282 2.696-1.504 5.339-1.504 5.339-3.01-3.54.363-7.135.363-7.135-2.438.898-2.898 2.865-2.898 2.865-.22-5.66 4.731-5.043 4.731-5.043 2.422-6.334 8.276-2.075 8.276-2.075-3.883-.504-4.48 1.346-4.48 1.346 5.062-.225 4.457 5.772 4.457 5.772zm15.8-5.368s3.882 6.57-2.64 8.45c0 0 2.998-2.482-.394-8.676 0 0-5.309 5.257-6.592 21.205H47.5c1.429-12.529 5.773-21.569 8.25-22.555 0 0-4.303-1.417-7.383 2.544 0 0-.474-5.542 6.47-4.87 0 0-.913-1.287-7.337-.648 0 0 4.878-5.486 11.702.648 0 0 7.007-1.399 7.31 6.477 0 0-1.756-3.173-5.336-4.151 0 0 6.092 5.11 2.179 10.35 0 0-.328-5.287-3.882-8.774z"/><path fill="url(#paint4_linear)" d="M73.093 76.749c0 6.463-11.95 11.7-26.69 11.7-14.742 0-26.69-5.237-26.69-11.7 0-6.463 11.948-11.7 26.69-11.7 14.74 0 26.69 5.237 26.69 11.7z"/><path fill="#FACC5F" d="M59.2 26.295a5.119 5.119 0 1 1-10.238-.001 5.119 5.119 0 0 1 10.237.001z"/></g><defs><linearGradient id="paint0_linear" x1="0" x2="0" y1="0" y2="95" gradientUnits="userSpaceOnUse"><stop stop-color="#fff"/><stop offset="1" stop-color="#DFDFDF"/></linearGradient><linearGradient id="paint1_linear" x1="6.961" x2="6.961" y1="6.961" y2="88.039" gradientUnits="userSpaceOnUse"><stop stop-color="#fff"/><stop offset="1" stop-color="#DFDFDF"/></linearGradient><linearGradient id="paint2_linear" x1="78.211" x2="78.211" y1="78.211" y2="16.789" gradientUnits="userSpaceOnUse"><stop stop-color="#80C3F3"/><stop offset="1" stop-color="#4A90E2"/></linearGradient><linearGradient id="paint3_linear" x1="44.564" x2="-43.719" y1="-59.904" y2="48.519" gradientUnits="userSpaceOnUse"><stop stop-color="#2151AC"/><stop offset="1" stop-color="#0F274E"/></linearGradient><linearGradient id="paint4_linear" x1="19.714" x2="19.714" y1="65.049" y2="88.448" gradientUnits="userSpaceOnUse"><stop stop-color="#fff"/><stop offset="1" stop-color="#DFDFDF"/></linearGradient></defs></svg>