<svg xmlns="http://www.w3.org/2000/svg" width="224" height="95" fill="none" viewBox="0 0 224 95">
    <path fill="url(#paint0_linear)" fill-opacity=".1" fill-rule="evenodd"
          d="M47.5 95C73.734 95 95 73.734 95 47.5 95 21.267 73.734 0 47.5 0 21.267 0 0 21.267 0 47.5 0 73.734 21.267 95 47.5 95z"
          clip-rule="evenodd"/>
    <path fill="url(#paint1_linear)" fill-opacity=".3" fill-rule="evenodd"
          d="M47.5 88.039c22.389 0 40.539-18.15 40.539-40.539 0-22.389-18.15-40.539-40.539-40.539-22.389 0-40.539 18.15-40.539 40.539 0 22.389 18.15 40.539 40.539 40.539z"
          clip-rule="evenodd"/>
    <path fill="#F9F9F9" fill-opacity=".67" fill-rule="evenodd"
          d="M47.449 80.566c18.29 0 33.117-14.827 33.117-33.117S65.739 14.332 47.449 14.332 14.332 29.159 14.332 47.449s14.827 33.117 33.117 33.117z"
          clip-rule="evenodd"/>
    <path fill="url(#paint2_linear)" fill-rule="evenodd"
          d="M47.5 78.211c16.961 0 30.711-13.75 30.711-30.711S64.461 16.789 47.5 16.789 16.789 30.539 16.789 47.5 30.539 78.211 47.5 78.211z"
          clip-rule="evenodd"/>
    <path fill="url(#paint3_linear)" fill-rule="evenodd"
          d="M47.5 78.211c16.961 0 30.711-13.75 30.711-30.711S64.461 16.789 47.5 16.789 16.789 30.539 16.789 47.5 30.539 78.211 47.5 78.211z"
          clip-rule="evenodd"/>
    <mask id="a" width="63" height="63" x="16" y="16" maskUnits="userSpaceOnUse">
        <path fill="#fff" fill-rule="evenodd"
              d="M47.5 78.211c16.961 0 30.711-13.75 30.711-30.711S64.461 16.789 47.5 16.789 16.789 30.539 16.789 47.5 30.539 78.211 47.5 78.211z"
              clip-rule="evenodd"/>
    </mask>
    <g fill-rule="evenodd" clip-rule="evenodd" mask="url(#a)">
        <path fill="#fff"
              d="M43.673 53.094c-2.516-4.424-5.043-3.29-5.043-3.29 7.354 9.782 6.225 16.758 6.284 18.901H42.33c2.583-7.204-4.803-17.736-4.803-17.736-2.108 2.848 1.4 6.974 1.4 6.974-5.757-1.585-4.2-5.918-4.2-5.918-2.282 2.696-1.504 5.339-1.504 5.339-3.01-3.54.363-7.135.363-7.135-2.438.898-2.898 2.865-2.898 2.865-.22-5.66 4.731-5.043 4.731-5.043 2.422-6.334 8.276-2.075 8.276-2.075-3.883-.504-4.48 1.346-4.48 1.346 5.062-.225 4.457 5.772 4.457 5.772zM59.473 47.726s3.882 6.57-2.64 8.45c0 0 2.998-2.482-.394-8.676 0 0-5.309 5.257-6.592 21.205H47.5c1.429-12.529 5.773-21.569 8.25-22.555 0 0-4.303-1.417-7.383 2.544 0 0-.474-5.542 6.47-4.87 0 0-.913-1.287-7.337-.648 0 0 4.878-5.486 11.702.648 0 0 7.007-1.399 7.31 6.477 0 0-1.756-3.173-5.336-4.151 0 0 6.092 5.11 2.179 10.35 0 0-.328-5.287-3.882-8.774z"/>
        <path fill="url(#paint4_linear)"
              d="M73.093 76.749c0 6.463-11.95 11.7-26.69 11.7-14.742 0-26.69-5.237-26.69-11.7 0-6.463 11.948-11.7 26.69-11.7 14.74 0 26.69 5.237 26.69 11.7z"/>
        <path fill="#FACC5F" d="M59.2 26.295a5.119 5.119 0 1 1-10.238-.001 5.119 5.119 0 0 1 10.237.001z"/>
    </g>
    <path fill="#fff"
          d="M126.15 57.75h-4.08V40.44h-6.96v-3.57h18v3.57h-6.96v17.31zM137.456 50.1v7.65h-3.81V42.24h3.66v2.58c.48-.86 1.09-1.52 1.83-1.98.76-.48 1.61-.72 2.55-.72h.6v3.6h-.72c-1.16 0-2.14.38-2.94 1.14-.78.76-1.17 1.84-1.17 3.24zM149.333 58.2c-1.62 0-2.92-.44-3.9-1.32-.96-.9-1.44-2.09-1.44-3.57 0-1.6.58-2.85 1.74-3.75 1.16-.9 2.78-1.35 4.86-1.35h3.15v-.57c0-.96-.26-1.65-.78-2.07-.52-.44-1.22-.66-2.1-.66-.76 0-1.38.15-1.86.45-.48.3-.78.65-.9 1.05h-3.66c.26-1.32.96-2.42 2.1-3.3 1.14-.88 2.62-1.32 4.44-1.32 2.02 0 3.61.51 4.77 1.53 1.16 1 1.74 2.57 1.74 4.71v9.72h-3.51v-1.92a4.45 4.45 0 01-2.04 1.8c-.84.38-1.71.57-2.61.57zm.96-3.06c.54 0 1.07-.12 1.59-.36.54-.24.98-.59 1.32-1.05.36-.48.54-1.08.54-1.8v-.99h-2.97c-.98 0-1.74.19-2.28.57-.52.36-.78.88-.78 1.56s.24 1.2.72 1.56c.48.34 1.1.51 1.86.51zM169.056 57.75h-3.99l-6.03-15.51h4.35l3.81 11.16 3.81-11.16h4.11l-6.06 15.51zM183.874 58.2c-1.6 0-2.98-.33-4.14-.99-1.14-.68-2.02-1.64-2.64-2.88-.62-1.24-.93-2.71-.93-4.41 0-1.54.3-2.92.9-4.14.62-1.24 1.5-2.21 2.64-2.91 1.14-.72 2.5-1.08 4.08-1.08 2.28 0 4.03.73 5.25 2.19 1.22 1.46 1.83 3.41 1.83 5.85v1.38h-10.86c.32 2.58 1.62 3.87 3.9 3.87.74 0 1.35-.12 1.83-.36.5-.24.84-.55 1.02-.93h3.84c-.38 1.36-1.17 2.44-2.37 3.24-1.18.78-2.63 1.17-4.35 1.17zm-.12-13.29c-1.04 0-1.88.31-2.52.93-.64.6-1.05 1.47-1.23 2.61h7.14c-.04-1.06-.35-1.91-.93-2.55-.56-.66-1.38-.99-2.46-.99zM193.968 57.75V36h3.81v21.75h-3.81zM201.732 57.75V36h3.81v21.75h-3.81zM213.816 58.2c-1.62 0-2.92-.44-3.9-1.32-.96-.9-1.44-2.09-1.44-3.57 0-1.6.58-2.85 1.74-3.75 1.16-.9 2.78-1.35 4.86-1.35h3.15v-.57c0-.96-.26-1.65-.78-2.07-.52-.44-1.22-.66-2.1-.66-.76 0-1.38.15-1.86.45-.48.3-.78.65-.9 1.05h-3.66c.26-1.32.96-2.42 2.1-3.3 1.14-.88 2.62-1.32 4.44-1.32 2.02 0 3.61.51 4.77 1.53 1.16 1 1.74 2.57 1.74 4.71v9.72h-3.51v-1.92a4.45 4.45 0 01-2.04 1.8c-.84.38-1.71.57-2.61.57zm.96-3.06c.54 0 1.07-.12 1.59-.36.54-.24.98-.59 1.32-1.05.36-.48.54-1.08.54-1.8v-.99h-2.97c-.98 0-1.74.19-2.28.57-.52.36-.78.88-.78 1.56s.24 1.2.72 1.56c.48.34 1.1.51 1.86.51z"/>
    <defs>
        <linearGradient id="paint0_linear" x1="0" x2="0" y1="0" y2="95" gradientUnits="userSpaceOnUse">
            <stop stop-color="#fff"/>
            <stop offset="1" stop-color="#DFDFDF"/>
        </linearGradient>
        <linearGradient id="paint1_linear" x1="6.961" x2="6.961" y1="6.961" y2="88.039" gradientUnits="userSpaceOnUse">
            <stop stop-color="#fff"/>
            <stop offset="1" stop-color="#DFDFDF"/>
        </linearGradient>
        <linearGradient id="paint2_linear" x1="78.211" x2="78.211" y1="78.211" y2="16.789"
                        gradientUnits="userSpaceOnUse">
            <stop stop-color="#80C3F3"/>
            <stop offset="1" stop-color="#4A90E2"/>
        </linearGradient>
        <linearGradient id="paint3_linear" x1="44.564" x2="-43.719" y1="-59.904" y2="48.519"
                        gradientUnits="userSpaceOnUse">
            <stop stop-color="#2151AC"/>
            <stop offset="1" stop-color="#0F274E"/>
        </linearGradient>
        <linearGradient id="paint4_linear" x1="19.714" x2="19.714" y1="65.049" y2="88.448"
                        gradientUnits="userSpaceOnUse">
            <stop stop-color="#fff"/>
            <stop offset="1" stop-color="#DFDFDF"/>
        </linearGradient>
    </defs>
</svg>