<svg width="107" height="23" viewBox="0 0 107 23" fill="none" xmlns="http://www.w3.org/2000/svg">
<path d="M11.15 21.75H7.06999V4.44H0.109985V0.87H18.11V4.44H11.15V21.75Z" fill="white"/>
<path d="M22.456 14.1V21.75H18.646V6.24H22.306V8.82C22.786 7.96 23.396 7.3 24.136 6.84C24.896 6.36 25.746 6.12 26.686 6.12H27.286V9.72H26.566C25.406 9.72 24.426 10.1 23.626 10.86C22.846 11.62 22.456 12.7 22.456 14.1Z" fill="white"/>
<path d="M34.3332 22.2C32.7132 22.2 31.4132 21.76 30.4332 20.88C29.4732 19.98 28.9932 18.79 28.9932 17.31C28.9932 15.71 29.5732 14.46 30.7332 13.56C31.8932 12.66 33.5132 12.21 35.5932 12.21H38.7432V11.64C38.7432 10.68 38.4832 9.99 37.9632 9.57C37.4432 9.13 36.7432 8.91 35.8632 8.91C35.1032 8.91 34.4832 9.06 34.0032 9.36C33.5232 9.66 33.2232 10.01 33.1032 10.41H29.4432C29.7032 9.09 30.4032 7.99 31.5432 7.11C32.6832 6.23 34.1632 5.79 35.9832 5.79C38.0032 5.79 39.5932 6.3 40.7532 7.32C41.9132 8.32 42.4932 9.89 42.4932 12.03V21.75H38.9832V19.83C38.4832 20.65 37.8032 21.25 36.9432 21.63C36.1032 22.01 35.2332 22.2 34.3332 22.2ZM35.2932 19.14C35.8332 19.14 36.3632 19.02 36.8832 18.78C37.4232 18.54 37.8632 18.19 38.2032 17.73C38.5632 17.25 38.7432 16.65 38.7432 15.93V14.94H35.7732C34.7932 14.94 34.0332 15.13 33.4932 15.51C32.9732 15.87 32.7132 16.39 32.7132 17.07C32.7132 17.75 32.9532 18.27 33.4332 18.63C33.9132 18.97 34.5332 19.14 35.2932 19.14Z" fill="white"/>
<path d="M54.0556 21.75H50.0656L44.0356 6.24H48.3856L52.1956 17.4L56.0056 6.24H60.1156L54.0556 21.75Z" fill="white"/>
<path d="M68.874 22.2C67.274 22.2 65.894 21.87 64.734 21.21C63.594 20.53 62.714 19.57 62.094 18.33C61.474 17.09 61.164 15.62 61.164 13.92C61.164 12.38 61.464 11 62.064 9.78C62.684 8.54 63.564 7.57 64.704 6.87C65.844 6.15 67.204 5.79 68.784 5.79C71.064 5.79 72.814 6.52 74.034 7.98C75.254 9.44 75.864 11.39 75.864 13.83V15.21H65.004C65.324 17.79 66.624 19.08 68.904 19.08C69.644 19.08 70.254 18.96 70.734 18.72C71.234 18.48 71.574 18.17 71.754 17.79H75.594C75.214 19.15 74.424 20.23 73.224 21.03C72.044 21.81 70.594 22.2 68.874 22.2ZM68.754 8.91C67.714 8.91 66.874 9.22 66.234 9.84C65.594 10.44 65.184 11.31 65.004 12.45H72.144C72.104 11.39 71.794 10.54 71.214 9.9C70.654 9.24 69.834 8.91 68.754 8.91Z" fill="white"/>
<path d="M78.9683 21.75V0H82.7783V21.75H78.9683Z" fill="white"/>
<path d="M86.7319 21.75V0H90.5419V21.75H86.7319Z" fill="white"/>
<path d="M98.8156 22.2C97.1956 22.2 95.8956 21.76 94.9156 20.88C93.9556 19.98 93.4756 18.79 93.4756 17.31C93.4756 15.71 94.0556 14.46 95.2156 13.56C96.3756 12.66 97.9956 12.21 100.076 12.21H103.226V11.64C103.226 10.68 102.966 9.99 102.446 9.57C101.926 9.13 101.226 8.91 100.346 8.91C99.5856 8.91 98.9656 9.06 98.4856 9.36C98.0056 9.66 97.7056 10.01 97.5856 10.41H93.9256C94.1856 9.09 94.8856 7.99 96.0256 7.11C97.1656 6.23 98.6456 5.79 100.466 5.79C102.486 5.79 104.076 6.3 105.236 7.32C106.396 8.32 106.976 9.89 106.976 12.03V21.75H103.466V19.83C102.966 20.65 102.286 21.25 101.426 21.63C100.586 22.01 99.7156 22.2 98.8156 22.2ZM99.7756 19.14C100.316 19.14 100.846 19.02 101.366 18.78C101.906 18.54 102.346 18.19 102.686 17.73C103.046 17.25 103.226 16.65 103.226 15.93V14.94H100.256C99.2756 14.94 98.5156 15.13 97.9756 15.51C97.4556 15.87 97.1956 16.39 97.1956 17.07C97.1956 17.75 97.4356 18.27 97.9156 18.63C98.3956 18.97 99.0156 19.14 99.7756 19.14Z" fill="white"/>
</svg>
